<?xml version="1.0" encoding="iso-8859-1"?>
<!-- Generator: Adobe Illustrator 19.0.0, SVG Export Plug-In . SVG Version: 6.00 Build 0)  -->
<svg version="1.1" id="Capa_1" xmlns="http://www.w3.org/2000/svg" xmlns:xlink="http://www.w3.org/1999/xlink" x="0px" y="0px"
	 viewBox="0 0 512 512" style="enable-background:new 0 0 512 512;" xml:space="preserve">
<circle style="fill:#29D371;" cx="256" cy="256" r="256"/>
<path style="fill:#0CBF55;" d="M512,256c0-7.209-0.313-14.344-0.898-21.402l-89.273-89.273l-7.39,15.582l-75.166-75.166
	L181.152,92.81v120.725l-90.981,14.429l115.997,115.997l-99.469,60.3l103.685,103.685C225.187,510.606,240.43,512,256,512
	C397.385,512,512,397.385,512,256z"/>
<path style="fill:#546E7A;" d="M339.273,171.852H172.727V85.741h166.547L339.273,171.852L339.273,171.852z M192.727,151.852h126.547
	v-46.111H192.727V151.852z"/>
<g>
	<polygon style="fill:#455A64;" points="339.273,85.741 255.952,85.741 255.952,105.741 319.273,105.741 319.273,151.852 
		255.952,151.852 255.952,171.852 339.273,171.852 	"/>
	<rect x="106.7" y="215.84" style="fill:#455A64;" width="298.6" height="188.42"/>
</g>
<g>
	<rect x="255.95" y="215.84" style="fill:#37474F;" width="149.35" height="188.42"/>
	<rect x="90.17" y="145.32" style="fill:#37474F;" width="331.66" height="82.64"/>
</g>
<rect x="255.95" y="145.32" style="fill:#263238;" width="165.88" height="82.64"/>
<circle style="fill:#E2F1FC;" cx="256" cy="301.89" r="65.25"/>
<path style="fill:#BADDFA;" d="M302.036,255.654l-92.273,92.273c11.816,11.867,28.167,19.214,46.237,19.214
	c36.037,0,65.25-29.214,65.25-65.25C321.25,283.822,313.903,267.47,302.036,255.654z"/>
<path style="fill:#303F9E;" d="M302.495,278.955l-27.189,27.189l-24.113-24.113l27.189-27.189
	c-12.351-3.734-26.304-0.724-36.066,9.038c-9.775,9.775-12.779,23.753-9.022,36.116l-34.07,34.07
	c5.69,10.02,13.956,18.384,23.898,24.196l34.219-34.219c12.363,3.757,26.341,0.753,36.116-9.022
	C303.219,305.259,306.228,291.305,302.495,278.955z"/>
<path style="fill:#283592;" d="M275.306,306.144l-11.879-11.879l-53.66,53.66c3.975,3.992,8.461,7.475,13.356,10.336l34.219-34.218
	c12.363,3.757,26.341,0.753,36.116-9.021c9.762-9.762,12.771-23.715,9.038-36.066L275.306,306.144z"/>
<g>
</g>
<g>
</g>
<g>
</g>
<g>
</g>
<g>
</g>
<g>
</g>
<g>
</g>
<g>
</g>
<g>
</g>
<g>
</g>
<g>
</g>
<g>
</g>
<g>
</g>
<g>
</g>
<g>
</g>
</svg>
